<svg width="30" height="31" viewBox="0 0 30 31" fill="none" xmlns="http://www.w3.org/2000/svg"><path fill-rule="evenodd" clip-rule="evenodd" d="M10.3125 7.0625C9.31793 7.0625 8.3641 7.45759 7.66084 8.16085C6.95758 8.86411 6.56249 9.81794 6.56249 10.8125C6.56249 11.8071 6.95758 12.7609 7.66084 13.4642C8.3641 14.1674 9.31793 14.5625 10.3125 14.5625C11.3071 14.5625 12.2609 14.1674 12.9641 13.4642C13.6674 12.7609 14.0625 11.8071 14.0625 10.8125C14.0625 9.81794 13.6674 8.86411 12.9641 8.16085C12.2609 7.45759 11.3071 7.0625 10.3125 7.0625ZM3.74999 10.8125C3.74986 9.72476 4.0201 8.65405 4.53642 7.69666C5.05274 6.73927 5.79894 5.92524 6.7079 5.32778C7.61686 4.73031 8.66008 4.36816 9.74373 4.27389C10.8274 4.17961 11.9175 4.35618 12.9159 4.7877C13.9144 5.21923 14.79 5.89217 15.4639 6.74602C16.1378 7.59986 16.5888 8.60782 16.7765 9.67925C16.9642 10.7507 16.8827 11.8519 16.5392 12.884C16.1957 13.9161 15.6011 14.8466 14.8087 15.5919C16.3028 16.3167 17.6001 17.3913 18.5904 18.7243C19.5807 20.0574 20.2349 21.6096 20.4975 23.2494C20.5264 23.4318 20.5191 23.6182 20.476 23.7978C20.4329 23.9775 20.3549 24.1469 20.2463 24.2963C20.1378 24.4458 20.0008 24.5724 19.8433 24.669C19.6859 24.7655 19.5109 24.8301 19.3284 24.8591C19.146 24.888 18.9596 24.8807 18.78 24.8376C18.6003 24.7945 18.4309 24.7165 18.2815 24.6079C18.132 24.4994 18.0054 24.3624 17.9088 24.2049C17.8123 24.0474 17.7477 23.8725 17.7187 23.69C17.435 21.9301 16.5338 20.3287 15.1767 19.1728C13.8196 18.0169 12.0952 17.3821 10.3125 17.3821C8.52983 17.3821 6.80543 18.0169 5.44828 19.1728C4.09114 20.3287 3.18997 21.9301 2.90624 23.69C2.87719 23.8725 2.81248 24.0474 2.71581 24.2048C2.61915 24.3623 2.49242 24.4992 2.34286 24.6076C2.1933 24.7161 2.02383 24.7941 1.84415 24.837C1.66446 24.88 1.47807 24.8872 1.29562 24.8581C1.11316 24.8291 0.938215 24.7644 0.780767 24.6677C0.623319 24.571 0.486453 24.4443 0.377983 24.2947C0.269512 24.1452 0.191562 23.9757 0.148583 23.796C0.105603 23.6163 0.0984365 23.43 0.127491 23.2475C0.390619 21.6084 1.04507 20.0569 2.03536 18.7246C3.02566 17.3922 4.3226 16.3182 5.81624 15.5938C5.16286 14.9807 4.64233 14.24 4.28691 13.4176C3.93148 12.5951 3.74874 11.7085 3.74999 10.8125ZM20.625 8C20.252 8 19.8943 8.14816 19.6306 8.41188C19.3669 8.6756 19.2187 9.03329 19.2187 9.40625C19.2187 9.77921 19.3669 10.1369 19.6306 10.4006C19.8943 10.6643 20.252 10.8125 20.625 10.8125C21.2594 10.8125 21.8752 11.0271 22.3723 11.4212C22.8694 11.8154 23.2186 12.366 23.3633 12.9837C23.5079 13.6014 23.4395 14.2499 23.1691 14.8238C22.8987 15.3977 22.4422 15.8633 21.8737 16.145C21.6393 16.2616 21.4421 16.4413 21.3043 16.6639C21.1665 16.8865 21.0936 17.1432 21.0937 17.405V18.065C21.0933 18.3809 21.1993 18.6877 21.3945 18.936C21.5898 19.1843 21.8629 19.3596 22.17 19.4337C24.42 19.9756 26.2237 21.6837 26.8987 23.8813C26.9523 24.0585 27.0403 24.2235 27.1578 24.3667C27.2752 24.5098 27.4198 24.6284 27.5833 24.7155C27.7467 24.8027 27.9257 24.8567 28.11 24.8745C28.2944 24.8922 28.4804 24.8734 28.6574 24.8191C28.8345 24.7648 28.9991 24.676 29.1417 24.5579C29.2844 24.4398 29.4023 24.2947 29.4887 24.1309C29.5751 23.9671 29.6283 23.7878 29.6453 23.6034C29.6622 23.419 29.6426 23.2331 29.5875 23.0562C29.2123 21.8386 28.5932 20.71 27.768 19.7391C26.9428 18.7682 25.9288 17.9753 24.7875 17.4087C25.5205 16.6024 26.0036 15.6005 26.1779 14.5247C26.3522 13.449 26.2103 12.3458 25.7694 11.3492C25.3285 10.3526 24.6076 9.50558 23.6943 8.91101C22.7811 8.31643 21.7147 7.99994 20.625 8Z" fill="#64676A"/></svg>