<svg width="30" height="31" viewBox="0 0 30 31" fill="none" xmlns="http://www.w3.org/2000/svg"><path fill-rule="evenodd" clip-rule="evenodd" d="M9.37501 6.59376C9.37501 6.96672 9.22685 7.3244 8.96313 7.58813C8.69941 7.85185 8.34172 8.00001 7.96876 8.00001C7.5958 8.00001 7.23811 7.85185 6.97439 7.58813C6.71067 7.3244 6.56251 6.96672 6.56251 6.59376C6.56251 6.2208 6.71067 5.86311 6.97439 5.59939C7.23811 5.33567 7.5958 5.18751 7.96876 5.18751C8.34172 5.18751 8.69941 5.33567 8.96313 5.59939C9.22685 5.86311 9.37501 6.2208 9.37501 6.59376ZM9.37501 10.5725C10.3133 10.2408 11.1041 9.58804 11.6076 8.72965C12.1112 7.87126 12.295 6.86249 12.1268 5.88163C11.9585 4.90078 11.4488 4.011 10.688 3.36955C9.92709 2.7281 8.96394 2.37628 7.96876 2.37628C6.97357 2.37628 6.01043 2.7281 5.24955 3.36955C4.48867 4.011 3.97905 4.90078 3.81076 5.88163C3.64248 6.86249 3.82636 7.87126 4.3299 8.72965C4.83345 9.58804 5.62424 10.2408 6.56251 10.5725V12.2188C6.56251 13.3376 7.00698 14.4107 7.79815 15.2019C8.58932 15.993 9.66238 16.4375 10.7813 16.4375H13.5938V20.4275C12.655 20.7593 11.8637 21.4122 11.3598 22.271C10.8559 23.1297 10.6718 24.139 10.8401 25.1204C11.0084 26.1017 11.5182 26.992 12.2795 27.6338C13.0407 28.2756 14.0043 28.6276 15 28.6276C15.9957 28.6276 16.9593 28.2756 17.7206 27.6338C18.4818 26.992 18.9916 26.1017 19.1599 25.1204C19.3282 24.139 19.1441 23.1297 18.6402 22.271C18.1363 21.4122 17.3451 20.7593 16.4063 20.4275V16.4375H19.2188C20.3376 16.4375 21.4107 15.993 22.2019 15.2019C22.993 14.4107 23.4375 13.3376 23.4375 12.2188V10.5725C24.3758 10.2408 25.1666 9.58804 25.6701 8.72965C26.1737 7.87126 26.3575 6.86249 26.1893 5.88163C26.021 4.90078 25.5113 4.011 24.7505 3.36955C23.9896 2.7281 23.0264 2.37628 22.0313 2.37628C21.0361 2.37628 20.0729 2.7281 19.3121 3.36955C18.5512 4.011 18.0416 4.90078 17.8733 5.88163C17.705 6.86249 17.8889 7.87126 18.3924 8.72965C18.8959 9.58804 19.6867 10.2408 20.625 10.5725V12.2188C20.625 12.5917 20.4769 12.9494 20.2131 13.2131C19.9494 13.4769 19.5917 13.625 19.2188 13.625H10.7813C10.4083 13.625 10.0506 13.4769 9.78689 13.2131C9.52317 12.9494 9.37501 12.5917 9.37501 12.2188V10.5725ZM16.4063 24.4063C16.4063 24.7792 16.2581 25.1369 15.9944 25.4006C15.7307 25.6643 15.373 25.8125 15 25.8125C14.627 25.8125 14.2694 25.6643 14.0056 25.4006C13.7419 25.1369 13.5938 24.7792 13.5938 24.4063C13.5938 24.0333 13.7419 23.6756 14.0056 23.4119C14.2694 23.1482 14.627 23 15 23C15.373 23 15.7307 23.1482 15.9944 23.4119C16.2581 23.6756 16.4063 24.0333 16.4063 24.4063ZM22.0313 8.00001C22.4042 8.00001 22.7619 7.85185 23.0256 7.58813C23.2894 7.3244 23.4375 6.96672 23.4375 6.59376C23.4375 6.2208 23.2894 5.86311 23.0256 5.59939C22.7619 5.33567 22.4042 5.18751 22.0313 5.18751C21.6583 5.18751 21.3006 5.33567 21.0369 5.59939C20.7732 5.86311 20.625 6.2208 20.625 6.59376C20.625 6.96672 20.7732 7.3244 21.0369 7.58813C21.3006 7.85185 21.6583 8.00001 22.0313 8.00001Z" fill="#64676A"/></svg>