<svg width="30" height="31" viewBox="0 0 30 31" fill="none" xmlns="http://www.w3.org/2000/svg"><g clip-path="url(#clip0_4_60)"><path d="M15 18.3125C15.7459 18.3125 16.4613 18.0162 16.9887 17.4887C17.5162 16.9613 17.8125 16.2459 17.8125 15.5C17.8125 14.7541 17.5162 14.0387 16.9887 13.5113C16.4613 12.9838 15.7459 12.6875 15 12.6875C14.2541 12.6875 13.5387 12.9838 13.0113 13.5113C12.4838 14.0387 12.1875 14.7541 12.1875 15.5C12.1875 16.2459 12.4838 16.9613 13.0113 17.4887C13.5387 18.0162 14.2541 18.3125 15 18.3125Z" fill="#64676A"/><path fill-rule="evenodd" clip-rule="evenodd" d="M15 0.5C11.0218 0.5 7.20644 2.08035 4.3934 4.8934C1.58035 7.70644 0 11.5218 0 15.5C0 19.4782 1.58035 23.2936 4.3934 26.1066C7.20644 28.9196 11.0218 30.5 15 30.5C18.9782 30.5 22.7936 28.9196 25.6066 26.1066C28.4196 23.2936 30 19.4782 30 15.5C30 11.5218 28.4196 7.70644 25.6066 4.8934C22.7936 2.08035 18.9782 0.5 15 0.5ZM2.8125 15.5C2.8125 12.2677 4.09654 9.16774 6.38214 6.88214C8.66774 4.59654 11.7677 3.3125 15 3.3125C18.2323 3.3125 21.3323 4.59654 23.6179 6.88214C25.9035 9.16774 27.1875 12.2677 27.1875 15.5C27.1875 18.7323 25.9035 21.8323 23.6179 24.1179C21.3323 26.4035 18.2323 27.6875 15 27.6875C11.7677 27.6875 8.66774 26.4035 6.38214 24.1179C4.09654 21.8323 2.8125 18.7323 2.8125 15.5Z" fill="#64676A"/></g><defs><clipPath id="clip0_4_60"><rect width="30" height="30" fill="white" transform="translate(0 0.5)"/></clipPath></defs></svg>