<svg width="30" height="31" viewBox="0 0 30 31" fill="none" xmlns="http://www.w3.org/2000/svg"><g clip-path="url(#clip0_4_51)"><path fill-rule="evenodd" clip-rule="evenodd" d="M15 0.96875C15.2625 0.96858 15.5198 1.0419 15.7428 1.18041C15.9659 1.31893 16.1456 1.5171 16.2618 1.7525L19.7906 8.90562L27.6843 10.0531C27.944 10.0908 28.1879 10.2004 28.3885 10.3695C28.5891 10.5385 28.7384 10.7603 28.8195 11.0098C28.9007 11.2593 28.9104 11.5265 28.8476 11.7812C28.7849 12.0359 28.6521 12.268 28.4643 12.4513L22.7531 18.02L24.1012 25.88C24.1457 26.1386 24.1169 26.4045 24.0181 26.6476C23.9193 26.8907 23.7545 27.1014 23.5422 27.2557C23.33 27.41 23.0788 27.5018 22.8171 27.5208C22.5553 27.5398 22.2935 27.4852 22.0612 27.3631L15 23.6506L7.93872 27.3631C7.70658 27.485 7.44497 27.5396 7.18345 27.5206C6.92194 27.5017 6.67092 27.41 6.45875 27.256C6.24658 27.1019 6.08171 26.8916 5.98275 26.6488C5.88379 26.406 5.85468 26.1404 5.89872 25.8819L7.24872 18.0181L1.53372 12.4513C1.34541 12.2681 1.21216 12.0359 1.14907 11.7809C1.08598 11.5259 1.09558 11.2583 1.17677 11.0085C1.25796 10.7587 1.4075 10.5366 1.60845 10.3674C1.8094 10.1982 2.05372 10.0887 2.31372 10.0512L10.2075 8.90562L13.7381 1.7525C13.8543 1.5171 14.0341 1.31893 14.2571 1.18041C14.4801 1.0419 14.7374 0.96858 15 0.96875ZM15 5.55313L12.4031 10.8125C12.3023 11.0167 12.1533 11.1933 11.9691 11.3272C11.7849 11.4611 11.5709 11.5483 11.3456 11.5812L5.53872 12.425L9.73872 16.52C9.90213 16.6791 10.0244 16.8756 10.0949 17.0925C10.1655 17.3094 10.1822 17.5402 10.1437 17.765L9.15372 23.5475L14.3456 20.8175C14.5474 20.7114 14.772 20.656 15 20.656C15.228 20.656 15.4525 20.7114 15.6543 20.8175L20.8481 23.5475L19.8543 17.765C19.8158 17.5402 19.8326 17.3094 19.9031 17.0925C19.9737 16.8756 20.0959 16.6791 20.2593 16.52L24.4593 12.4269L18.6543 11.5831C18.429 11.5502 18.215 11.463 18.0308 11.3291C17.8466 11.1952 17.6977 11.0186 17.5968 10.8144L15 5.55313Z" fill="#64676A"/></g><defs><clipPath id="clip0_4_51"><rect width="30" height="30" fill="white" transform="translate(0 0.5)"/></clipPath></defs></svg>